<?xml version="1.0" encoding="UTF-8"?>
<svg id="bill" xmlns="http://www.w3.org/2000/svg" version="1.1" viewBox="0 0 32 32">
  <defs>
    <style>
      .st0 {
        fill: #f59e0b;
      }
    </style>
  </defs>
  <path class="st0" d="M26.5,2c-.1,0-.2,0-.3,0,0,0-.1,0-.2,0h-15.5c-1.9,0-3.5,1.6-3.5,3.5v23.5c0,.4.2.7.5.9.3.2.7.2,1,0l2.3-1.5,1.4,1.4c.3.3.9.4,1.3.1l2.4-1.6,2.4,1.6c.2.1.4.2.6.2s.5,0,.7-.3l1.4-1.4,2.3,1.5c.3.2.7.2,1,0,.3-.2.5-.5.5-.9V13h4c.6,0,1-.4,1-1v-6.5c0-1.9-1.6-3.5-3.5-3.5ZM23,27.1l-1.4-1c-.4-.3-.9-.2-1.3.1l-1.4,1.4-2.3-1.5c-.3-.2-.8-.2-1.1,0l-2.3,1.5-1.4-1.4c-.3-.3-.9-.4-1.3-.1l-1.4,1V5.5c0-.8.7-1.5,1.5-1.5h12.9c-.2.5-.4,1-.4,1.5v21.6ZM28,11h-3v-5.5c0-.8.7-1.5,1.5-1.5s1.5.7,1.5,1.5v5.5Z"/>
  <path class="st0" d="M13,9h6c.6,0,1-.4,1-1s-.4-1-1-1h-6c-.6,0-1,.4-1,1s.4,1,1,1Z"/>
  <path class="st0" d="M16,12h-4c-.6,0-1,.4-1,1s.4,1,1,1h4c.6,0,1-.4,1-1s-.4-1-1-1Z"/>
  <path class="st0" d="M16,16h-4c-.6,0-1,.4-1,1s.4,1,1,1h4c.6,0,1-.4,1-1s-.4-1-1-1Z"/>
  <path class="st0" d="M16,20h-4c-.6,0-1,.4-1,1s.4,1,1,1h4c.6,0,1-.4,1-1s-.4-1-1-1Z"/>
  <path class="st0" d="M20,12h-1c-.6,0-1,.4-1,1s.4,1,1,1h1c.6,0,1-.4,1-1s-.4-1-1-1Z"/>
  <path class="st0" d="M20,16h-1c-.6,0-1,.4-1,1s.4,1,1,1h1c.6,0,1-.4,1-1s-.4-1-1-1Z"/>
  <path class="st0" d="M20,20h-1c-.6,0-1,.4-1,1s.4,1,1,1h1c.6,0,1-.4,1-1s-.4-1-1-1Z"/>
</svg>
